<svg width="169" height="102" viewBox="0 0 169 102" fill="none" xmlns="http://www.w3.org/2000/svg">
<path d="M91.6523 44.2175C91.9667 43.9914 92.962 43.4488 93.5907 43.0871C96.472 41.4592 99.1961 41.007 100.349 40.8261C104.592 40.1479 108.678 40.7357 114.807 41.414C121.356 42.0923 119.47 41.7305 126.123 42.4088C130.838 42.9062 136.862 43.6297 143.882 44.7602" stroke="#A3BABA" stroke-miterlimit="10" stroke-linecap="round"/>
<path d="M88.125 60.288C89.0084 58.367 90.2036 55.8591 90.6193 54.7919C91.7626 52.0705 91.9185 51.3769 92.8019 50.4164C93.1656 50.0428 94.4128 48.6021 96.4914 48.0152C98.3102 47.4816 100.441 47.9618 102.312 48.0152C104.598 48.0685 106.936 48.0152 109.223 47.9084C120.863 47.4816 132.348 45.8274 143.884 44.7602" stroke="#A3BABA" stroke-miterlimit="10" stroke-linecap="round"/>
<path d="M99.0236 40.5253C99.4025 40.4214 100.647 39.3824 101.08 38.9667C102.163 38.0316 102.163 36.6808 102.217 35.4339C102.271 34.0831 102.325 32.4725 101.243 31.5374C100.431 30.862 99.4025 30.862 98.9695 30.862C94.6938 30.7061 90.2558 27.7967 88.0909 26.394C84.9518 24.3158 83.1117 21.9259 81.921 20.2634C79.4314 16.9384 78.1866 13.7173 77.5371 11.5872" stroke="#A3BABA" stroke-miterlimit="10" stroke-linecap="round"/>
<path d="M77.5371 11.5872C78.1343 12.2482 79.926 13.8754 80.9576 14.7908C81.8805 15.6552 83.2379 16.8248 85.0295 18.0961C86.9841 19.4182 87.0927 19.2148 89.4273 20.7403C90.6217 21.5031 91.8162 22.3167 93.2821 23.588C94.3679 24.5541 94.748 25.0626 97.1369 27.3001C97.6798 27.8086 99.1457 28.9273 99.4172 29.2324" stroke="#A3BABA" stroke-miterlimit="10" stroke-linecap="round"/>
<path d="M100.828 32.0556C99.4583 30.8047 98.2404 28.8467 97.5807 27.9221C96.6166 26.5624 95.6524 25.0939 95.2972 22.9728C95.145 22.1026 95.2972 21.9938 95.2465 20.2534C95.1957 18.8393 95.145 17.9147 94.8405 15.1409C94.3331 10.1372 94.0793 7.63535 93.8764 6.16687C93.6734 4.75278 93.4197 3.01236 93.0645 1" stroke="#A3BABA" stroke-miterlimit="10" stroke-linecap="round"/>
<path d="M93.0645 1C93.3273 1.49407 94.7464 3.63503 95.272 4.67806C97.6372 9.39914 98.9512 13.681 100.002 16.865C100.475 18.457 100.791 19.4451 101.474 21.5312C102.052 23.3428 102.578 24.7701 102.946 25.7033" stroke="#A3BABA" stroke-miterlimit="10" stroke-linecap="round"/>
<path d="M102.947 25.7033C102.947 26.05 102.947 26.4958 102.947 26.8425C102.947 27.1892 102.947 28.0808 102.947 30.2601C102.947 31.4488 102.947 31.647 102.947 32.7862C102.947 34.1235 102.947 36.3028 102.947 36.9963" stroke="#A3BABA" stroke-miterlimit="10" stroke-linecap="round"/>
<path d="M102.947 30.644C105.224 28.711 107.89 26.0344 108.945 24.8449C111.722 21.7223 112.556 19.9875 115.277 17.1127C117.11 15.1796 118.831 13.7918 119.887 12.9988" stroke="#A3BABA" stroke-miterlimit="10" stroke-linecap="round"/>
<path d="M119.887 11.5872C119.834 11.8541 119.249 13.4025 119.143 13.6694C118.718 14.844 118.294 15.6449 118.187 15.9119C117.338 17.567 116.701 19.4357 114.577 23.8138C112.293 28.5122 112.665 27.0173 111.337 29.9004C110.381 31.9827 109.744 33.7446 108.204 34.3853C107.886 34.4921 107.195 34.7057 106.346 35.293C105.974 35.5599 105.39 35.9337 104.859 36.521C103.744 37.6956 103.213 39.6711 102.947 40.5253" stroke="#A3BABA" stroke-miterlimit="10" stroke-linecap="round"/>
<path d="M104.357 29.2324C104.785 28.063 105.823 25.4192 106.495 23.3856C107.656 20.03 108.572 17.5895 109.244 14.8949C109.855 12.5562 110.465 9.30227 110.71 5.23489" stroke="#A3BABA" stroke-miterlimit="10" stroke-linecap="round"/>
<path d="M110.71 7.35229C110.554 9.202 110.344 13.8263 110.135 14.7998C110.031 15.4813 109.822 16.4548 109.508 18.4992C109.403 19.0347 109.351 19.7648 109.299 20.0569" stroke="#A3BABA" stroke-miterlimit="10" stroke-linecap="round"/>
<path d="M108.594 21.4685C110.484 19.3802 112.026 17.5465 113.22 16.1203C116.006 12.8605 116.902 11.6381 117.797 10.2628C118.742 8.78574 119.489 7.51237 119.887 6.64648" stroke="#A3BABA" stroke-miterlimit="10" stroke-linecap="round"/>
<path d="M108.594 27.1149C109.924 25.137 112.822 20.1371 114.152 17.7746C115.625 15.1922 117.335 11.1264 118.475 8.76389" stroke="#A3BABA" stroke-miterlimit="10" stroke-linecap="round"/>
<path d="M109.299 34.173C108.93 34.6969 108.298 35.9194 107.718 36.5742C107.034 37.3164 106.349 37.9276 105.77 38.4079" stroke="#A3BABA" stroke-miterlimit="10" stroke-linecap="round"/>
<path d="M107.18 36.9963C107.991 36.7085 109.829 36.1329 111.288 35.6052C113.235 34.9337 116.046 33.9743 119.236 33.0629C123.615 31.8158 123.398 32.1515 125.182 31.528C127.075 30.8564 129.724 29.6093 132.589 27.115" stroke="#A3BABA" stroke-miterlimit="10" stroke-linecap="round"/>
<path d="M105.77 40.5254C106.318 40.0548 107.908 39.1138 108.731 38.5256C108.786 38.4668 110.486 37.3492 112.24 36.4082C114.982 34.9377 116.518 34.3495 119.369 33.232C120.959 32.6438 124.853 30.7617 127.65 29.2324" stroke="#A3BABA" stroke-miterlimit="10" stroke-linecap="round"/>
<path d="M110.711 38.1557C111.102 38.205 112.127 38.4024 112.811 38.4024C114.813 38.4518 116.327 38.1557 117.304 37.9583C122.286 36.9219 125.753 35.8361 125.753 35.8361C127.902 35.0958 129.612 34.6023 131.175 34.0101C131.761 33.8127 132.249 33.6153 132.591 33.4672" stroke="#A3BABA" stroke-miterlimit="10" stroke-linecap="round"/>
<path d="M110.711 40.5253C111.189 40.3358 112.729 39.7674 113.685 39.4832C118.04 38.1568 122.713 37.541 127.015 35.9778C128.927 35.2673 130.785 34.4146 132.591 33.4672" stroke="#A3BABA" stroke-miterlimit="10" stroke-linecap="round"/>
<path d="M95.1836 44.7602C99.1504 42.1435 103.761 41.7175 108.263 42.0218C115.232 42.5086 122.094 44.1516 129.062 44.7602" stroke="#A3BABA" stroke-miterlimit="10" stroke-linecap="round"/>
<path d="M44.9517 5.31482C44.0642 5.7758 44.4297 7.97827 44.4819 8.23437C44.8473 10.2832 45.9958 10.8466 47.1443 13.3564C47.7186 14.6881 47.8752 15.6101 48.084 16.3784C49.3369 21.5005 55.0272 31.1299 58.3683 36.7642C64.3719 46.8546 63.902 44.7545 67.0343 50.3376C68.3394 52.5913 69.4357 54.7937 71.8894 56.8425C73.3511 58.0718 74.1864 58.3279 75.6481 59.9158C77.6319 62.0158 78.415 63.9622 79.0414 63.8085C79.5113 63.6549 79.1458 62.4256 80.0333 60.6329C80.5554 59.5572 80.8686 59.6597 81.2862 58.6865C81.4428 58.3792 82.0693 56.7913 81.5995 54.9986C81.1818 53.5132 80.3987 53.462 79.9811 51.9254C79.6157 50.5937 80.0855 50.1839 79.9289 49.0571C79.6679 46.957 77.7885 46.1375 76.2224 44.3448C74.1342 42.0399 73.9253 39.6837 73.2989 37.6349C72.3592 34.4592 71.4717 34.4592 62.2315 21.5005C62.2315 21.5005 56.0191 12.793 51.4773 9.10513C50.8508 8.59292 50.0678 8.02949 49.2325 7.46607C46.8833 5.82701 45.6304 4.95627 44.9517 5.31482Z" stroke="#A3BABA" stroke-miterlimit="10"/>
<path d="M74.7129 60.288C75.1377 61.1942 76.837 64.9254 77.5804 66.6311C79.7575 71.3218 80.6072 73.9336 82.7312 79.3173C84.3243 83.3683 83.8995 82.089 87.7759 91.7369C89.3158 95.5215 90.8027 99.1461 91.6523 101.225" stroke="#A3BABA" stroke-miterlimit="10" stroke-linecap="round"/>
<path d="M91.6523 101.225L94.4756 98.4017" stroke="#A3BABA" stroke-miterlimit="10" stroke-linecap="round"/>
<path d="M94.4775 98.4017C94.1169 97.3636 93.2411 95.1235 92.5198 93.2659C91.1803 89.8238 89.3771 85.289 84.5859 73.8154C83.504 71.2476 82.0615 67.8601 80.3613 63.817" stroke="#A3BABA" stroke-miterlimit="10" stroke-linecap="round"/>
<path d="M80.3588 63.817C78.5838 60.5987 74.6572 53.3835 72.0215 48.8675C69.9237 45.2858 66.804 40.1469 62.8236 34.0218C57.1757 25.3012 50.9362 16.4249 50.721 16.5287C50.5059 16.6325 55.9386 25.2493 59.919 31.634C65.6744 40.7698 68.2563 44.611 72.6132 51.982C74.6034 55.4079 78.0997 61.7926 79.1217 63.6613" stroke="#A3BABA" stroke-miterlimit="10" stroke-linecap="round"/>
<path d="M81.7715 68.7577C84.3632 61.0639 85.9951 52.8127 89.5467 45.565C90.3626 43.9482 91.4665 41.8296 91.6105 41.9411C91.9945 42.1642 89.6427 47.6278 89.4507 48.1296C87.8669 52.0322 87.003 55.4888 87.4829 59.8374C87.5309 60.2834 87.5789 60.6179 87.6269 60.8409" stroke="#A3BABA" stroke-miterlimit="10" stroke-linecap="round"/>
<path d="M88.1238 60.9938C87.1709 62.2565 86.2816 63.6163 85.3288 65.0732C84.1218 67.0644 82.5973 69.8326 81.7715 71.5809" stroke="#A3BABA" stroke-miterlimit="10" stroke-linecap="round"/>
<path d="M81.7717 76.5216C81.2667 77.6151 80.0043 79.9512 79.4362 81.0447C77.732 84.4744 75.9014 87.6555 74.0078 90.6378" stroke="#A3BABA" stroke-miterlimit="10" stroke-linecap="round"/>
<path d="M68.3613 95.5784L74.0078 90.6378" stroke="#A3BABA" stroke-miterlimit="10" stroke-linecap="round"/>
<path d="M80.3601 71.5809C78.3295 75.0773 72.2379 87.5793 70.3304 91.4464C69.6535 92.8238 68.9766 94.2011 68.3613 95.5784" stroke="#A3BABA" stroke-miterlimit="10" stroke-linecap="round"/>
<path d="M73.0255 70.6843H73.131L72.7089 73.6391H72.4978V73.217C72.5506 71.6868 72.1285 70.9481 71.7064 70.9481C71.4426 70.9481 71.1788 71.1592 71.126 71.5285C71.0732 72.0562 71.2843 72.7421 71.5481 73.2697L72.023 74.2722C72.3923 75.0109 72.5506 75.8023 72.4978 76.4883C72.3396 77.5435 71.6536 78.0711 70.8622 78.0711C70.5456 78.0711 70.3346 77.9656 70.018 77.649L69.3848 78.0711H69.2793L69.7014 74.9581H69.9125V75.1692C69.8069 76.4355 70.018 77.9129 70.7567 77.9129C71.0732 77.9129 71.3371 77.6491 71.3898 77.2269C71.4953 76.6466 71.2315 75.8551 70.915 75.2219L70.4401 74.2195C70.1235 73.4808 69.9652 72.9531 70.0707 72.4255C70.229 71.423 70.9677 70.8426 71.6009 70.7899C71.8647 70.7899 72.0757 70.8426 72.3396 71.2647L73.0255 70.6843Z" fill="#799392"/>
<path d="M75.0304 72.7948L74.3445 77.7545H74.6611V77.9128H72.9727V77.7545H73.2365L73.9224 72.9531H73.6586V72.7948H75.0304ZM75.1887 71.4757C75.1359 71.7395 74.8721 71.9506 74.6083 71.9506C74.3445 71.9506 74.1334 71.7395 74.1334 71.4757C74.1862 71.2119 74.45 71.0009 74.7138 71.0009C75.0304 70.9481 75.1887 71.2119 75.1887 71.4757Z" fill="#799392"/>
<path d="M77.2472 72.7421L77.1944 73.1114C77.511 72.7421 77.7748 72.6366 78.0386 72.6366C78.5663 72.6366 78.8301 72.9004 78.7773 73.4808L78.1969 77.7018H78.4607V77.8601H76.9306V77.7018H77.0889L77.7221 73.2697C77.7221 73.1114 77.6693 73.0059 77.5638 73.0059C77.4583 73.0059 77.1944 73.2697 77.1417 73.5335L76.5613 77.7018H76.7196V77.8601H75.1895V77.7018H75.4533L76.1392 72.9004H75.8754V72.7421H77.2472Z" fill="#799392"/>
<path d="M82.1015 72.5837H82.2598L81.9432 74.6942H81.7849C81.7849 74.4304 81.7321 72.742 81.1518 72.742C80.9407 72.742 80.8352 72.8475 80.7824 73.3224L80.2548 77.2269C80.202 77.5962 80.3603 77.7017 80.5714 77.7017C80.9935 77.7017 81.4156 76.9103 81.6794 75.6967H81.8377C81.5211 77.1213 81.1518 77.9128 80.3603 77.9128C79.3578 77.9128 79.2523 76.5937 79.4633 75.1163C79.6744 73.7973 80.1493 72.5837 81.099 72.5309C81.3628 72.5309 81.5211 72.5837 81.7322 72.9531L82.1015 72.5837Z" fill="#799392"/>
<path d="M83.525 75.2747L83.2612 77.0159C83.2084 77.5435 83.3667 77.7546 83.6305 77.7546C84.3164 77.7546 84.8441 76.8576 85.0023 75.9606H85.1606C84.9496 77.1742 84.2637 77.9656 83.525 77.9656C82.6808 77.9656 82.0476 77.3852 82.3642 75.1692C82.628 73.3752 83.3667 72.6366 84.2109 72.6366C84.8968 72.6366 85.5827 73.1114 85.3189 74.9054C85.3189 74.9054 85.2662 75.1692 85.2662 75.2747H83.525ZM84.2109 72.6893C83.9999 72.6893 83.8416 72.8476 83.7888 73.217L83.525 75.0637H84.2109L84.4747 73.2697C84.5802 72.8476 84.422 72.6893 84.2109 72.6893Z" fill="#799392"/>
<path d="M86.0578 77.9128C85.794 77.9128 85.5302 77.7018 85.583 77.2797C85.6357 76.8576 85.9523 76.5938 86.2689 76.5938C86.5327 76.5938 86.7965 76.8048 86.7438 77.2269C86.6382 77.649 86.3217 77.9128 86.0578 77.9128Z" fill="#799392"/>
<path d="M92.7592 70.6843L91.8095 77.5435H92.3371V77.7018H90.1738V77.5435H90.7015L91.5457 71.5813L91.018 71.7395V71.5813C91.8095 71.3174 91.9678 71.2647 92.2843 70.6315L92.7592 70.6843Z" fill="#799392"/>
<path d="M94.2364 77.8073C93.3394 77.8073 93.1283 77.1742 93.2339 76.541C93.2866 76.0661 93.656 75.7496 93.9198 75.7496C94.1836 75.7496 94.4474 75.9606 94.3947 76.33C94.3419 76.8576 93.9726 77.0686 93.7087 77.0686C93.6032 77.0686 93.5505 77.0686 93.4449 77.0159C93.5505 77.3852 93.8143 77.5963 94.1836 77.5963C94.5529 77.5963 94.764 77.3852 94.8168 76.9631L95.1861 74.4305C94.8168 74.7998 94.6057 74.9054 94.3419 74.9054C93.867 74.9054 93.3394 74.4833 93.6032 72.8476C93.8143 71.3702 94.5002 70.5788 95.3971 70.526C96.1886 70.526 96.7162 71.1592 96.2941 74.1667C95.872 77.2797 95.0278 77.8073 94.2364 77.8073ZM95.661 71.0537C95.661 70.8426 95.5554 70.7371 95.3971 70.7371C95.1861 70.7371 95.0806 70.8954 95.0278 71.0537L94.5529 74.2722C94.5002 74.536 94.6057 74.5888 94.7112 74.5888C94.9223 74.5888 95.1861 74.2722 95.2389 73.9556L95.661 71.0537Z" fill="#799392"/>
<path d="M97.6641 77.7545C96.7671 77.7545 96.5561 77.1214 96.6616 76.4882C96.7144 76.0133 97.0837 75.6968 97.3475 75.6968C97.6113 75.6968 97.8752 75.9078 97.8224 76.2772C97.7696 76.8048 97.4003 77.0158 97.1365 77.0158C97.031 77.0158 96.9782 77.0159 96.8727 76.9631C96.9782 77.3324 97.242 77.5435 97.6113 77.5435C97.9807 77.5435 98.1917 77.3324 98.2445 76.9103L98.6138 74.3777C98.2445 74.747 98.0334 74.8526 97.7696 74.8526C97.2948 74.8526 96.7671 74.4305 97.0309 72.7948C97.242 71.3174 97.9279 70.526 98.8249 70.4732C99.6163 70.4732 100.144 71.1064 99.7219 74.1139C99.2998 77.2269 98.4556 77.7545 97.6641 77.7545ZM99.0887 71.0009C99.1415 70.7898 98.9832 70.6843 98.8249 70.6843C98.6138 70.6843 98.5083 70.8426 98.4556 71.0009L97.9807 74.2194C97.9279 74.4832 98.0334 74.536 98.139 74.536C98.35 74.536 98.6138 74.2194 98.6666 73.9028L99.0887 71.0009Z" fill="#799392"/>
<path d="M101.147 77.7545C100.25 77.7545 100.038 77.1214 100.144 76.4882C100.197 76.0133 100.566 75.6968 100.83 75.6968C101.094 75.6968 101.358 75.9078 101.305 76.2772C101.252 76.8048 100.883 77.0158 100.619 77.0158C100.513 77.0158 100.461 77.0159 100.355 76.9631C100.461 77.3324 100.724 77.5435 101.094 77.5435C101.463 77.5435 101.674 77.3324 101.727 76.9103L102.096 74.3777C101.727 74.747 101.516 74.8526 101.252 74.8526C100.777 74.8526 100.25 74.4305 100.513 72.7948C100.724 71.3174 101.41 70.526 102.307 70.4732C103.099 70.4732 103.626 71.1064 103.204 74.1139C102.782 77.2269 101.885 77.7545 101.147 77.7545ZM102.518 71.0009C102.571 70.7898 102.413 70.6843 102.255 70.6843C102.043 70.6843 101.938 70.8426 101.885 71.0009L101.41 74.2194C101.358 74.4832 101.463 74.536 101.569 74.536C101.78 74.536 102.043 74.2194 102.096 73.9028L102.518 71.0009Z" fill="#799392"/>
<path d="M5.22353 67.0965L0.211049 67.1493V66.6744H1.37183L1.16078 48.7877H0V48.3129L4.85419 48.2601C7.5451 48.2073 9.3918 49.7375 9.44457 52.6922C9.49733 55.3831 8.23102 56.5439 6.06774 57.1771C8.38931 57.9685 9.65562 58.8655 9.70838 61.8202C9.70838 65.4081 7.75615 67.0437 5.22353 67.0965ZM6.22602 50.0013C6.22602 49.1571 5.80392 48.735 4.95972 48.735C4.95972 48.735 4.64314 48.735 4.48485 48.735L4.59038 57.0188H5.06524C5.96221 57.0188 6.33156 56.5967 6.33156 55.7525L6.22602 50.0013ZM6.33156 58.7072C6.33156 57.863 5.90945 57.4936 5.06524 57.4936H4.59038L4.6959 66.6216H5.17076C6.06773 66.6216 6.43708 66.1995 6.43708 65.3553L6.33156 58.7072Z" fill="#799392"/>
<path d="M16.6711 48.6295H15.4575L15.6686 66.5161C15.9851 66.5161 16.46 66.5161 16.46 66.5161C18.0429 66.5161 18.7288 66.094 19.5203 62.2951L20.1007 59.3404H20.47L20.5755 66.991L11.1837 67.0965V66.6217H12.3445L12.1334 48.735H10.9727V48.2601L16.6711 48.2074V48.6295Z" fill="#799392"/>
<path d="M25.7502 47.838C27.9135 47.838 30.0768 49.5792 30.1295 57.1771V57.6519C30.235 65.3026 28.1245 67.0965 25.9613 67.0965C23.7452 67.0965 21.6347 65.3553 21.5819 57.7574V57.2826C21.4764 49.632 23.5869 47.838 25.7502 47.838ZM24.9588 65.0915C24.9588 66.3051 25.3809 66.7271 25.9613 66.7271C26.5416 66.7271 26.9637 66.3051 26.911 65.0915L26.7527 49.843C26.7527 48.6295 26.3306 48.2601 25.7502 48.2601C25.1698 48.2601 24.7477 48.6295 24.8005 49.8958L24.9588 65.0915Z" fill="#799392"/>
<path d="M37.8316 59.4459L39.3617 47.8908L44.1631 47.838V48.3129H43.0024L43.2134 66.1995H44.3742V66.6744L38.9396 66.7271V66.2523H39.8893L39.6783 49.1571L37.3567 66.7271H36.0376L33.1884 49.1571L33.3467 64.5111C33.3467 65.8829 33.6105 66.094 34.7713 66.2523V66.7271L31.6056 66.7799V66.3051C32.5553 66.1468 32.7663 65.9885 32.7663 64.5639L32.608 48.4184H31.4473V47.9435L36.0376 47.8908L37.8316 59.4459Z" fill="#799392"/>
<path d="M52.4978 47.4688H52.7616L52.8672 55.2249H52.3395L52.234 54.0641C51.8119 50.0014 50.3873 48.0491 49.3321 48.1019C48.6461 48.1019 48.0657 48.6823 48.0657 49.6848C48.0657 51.0566 49.0155 52.9033 49.8597 54.2224L51.5481 56.8606C52.7616 58.8128 53.6059 60.8706 53.6059 62.6645C53.6586 65.4082 52.0757 66.8328 49.9124 66.8855C49.121 66.8855 48.5406 66.6745 47.5381 65.7775L46.008 66.8855H45.7969L45.6914 58.6545H46.219L46.2718 59.1294C46.4829 62.5062 47.6964 66.3579 49.5959 66.3051C50.4928 66.3051 51.0205 65.5665 51.0205 64.4057C51.0205 62.8755 50.1235 60.8178 49.0682 59.0766L47.4326 56.4912C46.2718 54.5918 45.7442 53.2199 45.7442 51.7426C45.6914 49.1572 47.3798 47.5215 49.121 47.4688C49.8597 47.4688 50.4401 47.627 51.2315 48.6823L52.4978 47.4688Z" fill="#799392"/>
<path d="M64.4741 55.6469H64.1575L63.366 51.848C62.6274 48.524 62.047 48.1019 61.2028 48.1546L61.4138 66.0413H62.7329V66.5161L56.7707 66.5689V66.094H58.0897L57.8787 48.2074C57.0345 48.2074 56.4541 48.6295 55.8209 51.9535L55.0823 55.7525H54.7657L54.6602 47.7325L64.4741 47.627V55.6469Z" fill="#799392"/>
<path d="M72.3904 52.0063H72.7598L72.8653 61.662H72.4959L72.4432 61.1343C72.2321 58.1796 71.3352 56.9133 70.1744 56.9661L70.2799 65.9358C70.4382 65.9358 70.8603 65.9358 70.8603 65.9358C72.7597 65.9358 73.815 65.1443 74.5009 60.1846L74.712 58.8128H75.1341L75.2396 66.4106L65.795 66.5162V66.0413H66.9558L66.7448 48.1546H65.584V47.6798L75.0286 47.5742L75.1341 54.75H74.7647L74.5537 53.4837C73.604 48.524 72.8125 48.1019 71.0186 48.1019H70.1216L70.2271 56.5967C71.3879 56.5967 72.1266 55.3832 72.3904 52.3757V52.0063Z" fill="#799392"/>
<path d="M85.794 66.3051C84.3694 66.3051 83.3669 65.5664 83.3141 63.7725L83.2614 58.1796C83.2614 57.2826 82.7337 56.8077 81.8895 56.8077H81.4147L81.4674 65.7774H82.5227V66.2523L76.9298 66.3051V65.8302H78.0906L77.8795 47.9436H76.7188V47.4687L81.8368 47.4159C84.5277 47.3632 86.3744 49.0516 86.4271 52.0591C86.4799 54.75 85.2136 55.7525 83.0503 56.5967C86.005 57.6519 86.4271 58.2851 86.4799 61.5564L86.5327 64.5111C86.5327 65.1971 86.7965 65.3553 87.1131 65.3553C87.4296 65.3553 88.0628 64.8277 88.0628 63.3503C88.0628 63.3503 88.0628 63.0338 88.0628 62.9282H88.4321C88.4321 63.0338 88.4321 63.3503 88.4321 63.3503C88.4849 65.3553 87.6935 66.3051 85.794 66.3051ZM83.1031 49.1571C83.1031 48.2074 82.681 47.8908 81.784 47.8908C81.784 47.8908 81.4147 47.8908 81.2564 47.8908L81.3619 56.3856H81.8895C82.8392 56.3856 83.2086 56.0163 83.2086 55.0666L83.1031 49.1571Z" fill="#799392"/>
<path d="M95.079 50.2651L93.6017 60.5011L96.0288 56.4383C96.5564 55.4886 96.3454 55.1193 95.3429 55.1193L95.3956 54.6972L98.4031 54.6444L98.3504 55.0665C97.77 55.0665 97.084 55.3831 96.6619 56.069L95.1846 58.5489L97.084 65.6719H97.4006L97.3479 66.094L94.0238 66.1467L94.0766 65.7246H94.7097L93.4962 61.187L92.863 65.7246H93.3906L93.3379 66.1467L89.75 66.1995L89.8028 65.7774H90.4359L92.5464 50.6344H91.9133L91.966 50.2651H95.079Z" fill="#799392"/>
<path d="M100.829 66.305C99.0354 66.305 97.8218 64.9332 98.455 60.3956C99.0881 55.8579 100.724 54.4333 102.518 54.4333C104.312 54.4333 105.525 55.8052 104.892 60.3428C104.206 64.8804 102.57 66.305 100.829 66.305ZM103.098 55.6469C103.204 55.0665 102.94 54.7499 102.465 54.7499C101.937 54.7499 101.621 55.0665 101.568 55.6469L100.249 65.0915C100.143 65.6719 100.354 65.9884 100.882 65.9884C101.41 65.9884 101.674 65.6719 101.779 65.0915L103.098 55.6469Z" fill="#799392"/>
<path d="M112.437 65.5664L112.385 65.9885L109.272 66.0412L109.324 65.6191H109.641L111.013 55.7524C111.066 55.3831 110.907 55.172 110.644 55.172C110.38 55.172 109.799 55.6997 109.747 56.3328L108.427 65.6191H108.744L108.691 66.0412L105.262 66.094L105.314 65.6719H105.948L107.425 55.0138H106.792L106.845 54.5917L109.958 54.5389L109.852 55.3303C110.591 54.5389 111.118 54.3278 111.804 54.3278C112.701 54.3278 113.282 54.6444 113.387 55.3831C114.179 54.5917 114.812 54.2751 115.445 54.2751C116.659 54.2751 117.239 54.9082 117.081 56.1218L115.762 65.5136H116.395L116.342 65.9357L112.912 65.9885L112.965 65.5664H113.282L114.654 55.7524C114.706 55.3831 114.548 55.172 114.284 55.172C114.02 55.172 113.493 55.6997 113.387 56.3328L112.068 65.6191L112.437 65.5664Z" fill="#799392"/>
<path d="M122.042 66.094C121.62 66.094 121.198 65.8829 120.776 65.2498L120.09 70.104H120.987L120.934 70.5261L116.924 70.5788L116.977 70.1567H117.61L119.773 54.9082H119.14L119.193 54.4861L122.147 54.4334L122.042 55.3303C122.517 54.5389 122.992 54.2751 123.572 54.2751C124.891 54.2751 125.894 55.5414 125.208 60.2373C124.574 65.1443 123.255 66.094 122.042 66.094ZM123.414 56.0163C123.519 55.2248 123.308 54.961 122.992 54.961C122.675 54.961 122.2 55.3831 122.042 56.3328L120.987 63.9835C120.881 64.8277 121.145 65.5136 121.672 65.5136C122.095 65.5136 122.2 64.8804 122.2 64.6166L123.414 56.0163Z" fill="#799392"/>
<path d="M133.332 63.6668C133.121 65.0914 132.435 65.9884 131.116 65.9884C130.325 65.9884 129.85 65.6718 129.533 64.9331C128.953 65.7773 128.425 65.9884 127.634 66.0412C126.473 66.0412 125.734 65.408 126.104 62.8226C126.473 60.1317 127.317 59.2347 130.219 58.5488L130.588 55.8052C130.747 54.8554 130.325 54.5388 129.903 54.5388C128.9 54.5388 128.056 55.383 128.056 55.5413C128.267 55.4358 128.425 55.4358 128.742 55.4358C129.269 55.4358 129.744 55.8052 129.639 56.3855C129.533 57.2825 128.795 57.7046 128.214 57.7046C127.581 57.7046 127.053 57.2825 127.159 56.4383C127.317 55.1192 128.636 54.1695 130.536 54.1167C132.33 54.1167 133.227 54.8554 133.016 56.5966L131.908 64.511C131.855 65.0387 131.96 65.1442 132.224 65.1442C132.488 65.1442 132.857 64.7221 133.016 63.6668H133.332ZM128.161 64.4055C128.109 64.9331 128.32 65.1442 128.742 65.1442C129.058 65.1442 129.375 64.8804 129.533 63.8251L130.219 59.0237C129.111 59.2875 128.847 59.7096 128.689 60.8704L128.161 64.4055Z" fill="#799392"/>
<path d="M141.459 55.0138C141.037 55.0138 140.668 54.7499 140.72 54.3278C140.773 53.8002 141.195 53.6419 141.037 53.6419C140.615 53.6419 139.982 54.2223 139.929 54.5916C140.773 55.6469 140.931 57.3353 140.72 58.8127C140.351 61.5564 138.926 63.7196 136.816 63.7196C136.288 63.7196 135.972 63.6669 135.655 63.6669C135.022 63.6669 134.653 63.9307 134.6 64.3528C134.547 64.7749 134.758 64.986 136.288 64.986C136.499 64.986 137.132 64.986 137.132 64.986C139.137 64.986 140.087 65.6191 139.876 67.3603C139.612 69.1542 138.241 70.315 135.919 70.315C133.545 70.315 132.595 69.418 132.753 68.099C132.806 67.5713 133.228 67.0965 134.178 66.5688C133.597 66.094 133.386 65.6191 133.439 65.197C133.545 64.3 134.336 63.5086 135.708 63.3503C134.547 62.5061 134.283 60.7122 134.547 58.8654C135.022 55.4359 136.658 54.0113 138.241 54.0113C138.663 54.0113 139.032 54.064 139.56 54.3278C139.929 53.6419 140.404 53.1671 141.195 53.1671C141.934 53.1671 142.356 53.5892 142.251 54.1168C142.251 54.7499 141.828 55.0138 141.459 55.0138ZM136.869 66.9382H136.288C135.444 66.9382 135.18 66.9382 134.6 66.7799C134.125 67.0965 133.914 67.5713 133.808 68.1517C133.65 69.1542 134.6 69.9457 136.077 69.9457C137.766 69.9457 138.874 69.1015 139.032 68.099C139.085 67.3603 138.504 66.9382 136.869 66.9382ZM138.768 55.0665C138.821 54.6444 138.663 54.3806 138.241 54.3806C137.818 54.3806 137.607 54.6444 137.555 55.0665L136.499 62.7172C136.447 63.1393 136.605 63.4031 137.027 63.4031C137.449 63.4031 137.66 63.1393 137.766 62.7172L138.768 55.0665Z" fill="#799392"/>
<path d="M145.997 54.1695L145.891 54.9609C146.63 54.1695 147.157 53.9584 147.843 53.9584C149.057 53.9584 149.637 54.5916 149.479 55.8051L148.16 65.1969H148.793L148.74 65.6191L145.311 65.6718L145.364 65.2497H145.68L147.052 55.4358C147.105 55.0665 146.946 54.8554 146.683 54.8554C146.419 54.8554 145.838 55.383 145.786 56.0162L144.467 65.3025H144.783L144.73 65.7246L141.301 65.7773L141.354 65.3552H141.987L143.464 54.6971H142.831L142.884 54.275L145.997 54.1695Z" fill="#799392"/>
<path d="M154.596 54.1168L153.066 65.1442H153.752L153.699 65.5663L149.953 65.6191L150.006 65.197H150.639L152.116 54.5389H151.483L151.536 54.1168H154.596ZM154.966 51.162C154.86 51.7424 154.332 52.2173 153.647 52.2173C153.013 52.2173 152.539 51.7424 152.644 51.162C152.75 50.5816 153.33 50.054 153.963 50.054C154.596 50.1068 155.018 50.5816 154.966 51.162Z" fill="#799392"/>
<path d="M158.237 59.8151L157.71 63.7196C157.551 64.9332 157.921 65.3025 158.501 65.3025C160.031 65.3025 161.192 63.2975 161.614 61.2397H162.036C161.561 63.9834 160.031 65.6718 158.448 65.6718C156.549 65.6718 155.177 64.4055 155.863 59.393C156.443 55.3303 158.026 53.8002 159.926 53.7474C161.509 53.7474 162.986 54.7499 162.406 58.8126C162.406 58.8126 162.3 59.4458 162.3 59.6568L158.237 59.8151ZM159.767 54.1167C159.345 54.1167 158.976 54.4861 158.818 55.3303L158.237 59.393H159.767L160.348 55.3303C160.506 54.4333 160.189 54.1167 159.767 54.1167Z" fill="#799392"/>
<path d="M167.838 50.1595L167.31 53.9585H168.999L168.946 54.3806H167.258L165.886 64.2472C165.833 64.7221 165.991 64.9331 166.255 64.9331C166.677 64.9331 167.258 64.1945 167.627 61.7674L167.68 61.4508H168.102C168.102 61.5563 168.049 61.8729 168.049 61.8729C167.627 65.0387 166.677 65.6718 165.305 65.6718C164.197 65.6718 163.3 65.0387 163.511 63.5613L164.778 54.4333H164.145L164.197 54.1695C165.727 53.167 167.047 51.4786 167.68 50.1595H167.838Z" fill="#799392"/>
</svg>
